<?xml version="1.0" standalone="no"?>
<!DOCTYPE svg PUBLIC "-//W3C//DTD SVG 20010904//EN"
 "http://www.w3.org/TR/2001/REC-SVG-20010904/DTD/svg10.dtd">
<svg version="1.0" xmlns="http://www.w3.org/2000/svg"
 width="1024.000000pt" height="1024.000000pt" viewBox="0 0 1024.000000 1024.000000"
 preserveAspectRatio="xMidYMid meet">

<g transform="translate(0.000000,1024.000000) scale(0.100000,-0.100000)"
fill="#000000" stroke="none">
<path d="M0 5120 l0 -5120 5120 0 5120 0 0 5120 0 5120 -5120 0 -5120 0 0
-5120z m5188 2777 c389 -298 877 -497 1437 -587 l70 -11 -6 -517 c-6 -532 -7
-548 -54 -795 -54 -284 -163 -569 -307 -800 -172 -279 -450 -558 -768 -773
-123 -83 -251 -159 -358 -213 l-77 -39 -75 37 c-372 183 -698 428 -927 697
-262 308 -427 648 -512 1056 -56 270 -63 360 -68 875 l-5 472 34 5 c189 30
249 40 346 62 374 83 795 277 1117 513 44 33 84 60 88 60 5 1 34 -19 65 -42z
m-245 -4330 c66 -143 118 -240 133 -252 l25 -20 -115 0 -115 0 25 26 24 25
-27 62 -28 62 -111 0 -111 0 -22 -51 c-26 -65 -26 -67 3 -98 l25 -26 -82 0
-83 0 29 30 c16 17 62 103 103 192 88 196 118 277 111 297 -9 24 74 26 92 3 8
-10 64 -123 124 -250z m497 264 c0 -3 -8 -13 -17 -23 -13 -15 -18 -42 -20
-119 -2 -54 0 -99 3 -99 5 0 26 19 164 148 50 46 54 53 43 71 -7 12 -13 22
-13 23 0 2 36 3 81 3 75 0 79 -1 57 -15 -12 -8 -66 -53 -118 -99 -52 -47 -96
-86 -98 -87 -2 -1 49 -68 113 -148 64 -81 113 -151 110 -156 -3 -5 0 -12 6
-16 8 -4 9 -3 5 4 -11 18 9 14 27 -5 15 -17 11 -18 -66 -15 l-82 4 -48 64
c-26 36 -45 70 -41 76 4 7 3 8 -4 4 -6 -4 -29 17 -53 49 -23 30 -44 55 -47 55
-3 0 -14 -7 -24 -17 -15 -13 -18 -31 -18 -99 0 -72 3 -86 24 -111 l24 -28 -94
0 c-52 0 -94 3 -94 6 0 3 9 14 20 24 19 17 20 31 20 239 0 220 0 220 -24 245
l-25 26 95 0 c51 0 94 -2 94 -4z m-2340 -839 l-23 -19 17 -239 c10 -131 18
-244 18 -251 1 -7 4 -10 8 -8 4 2 15 -1 25 -9 15 -11 2 -13 -83 -12 l-101 1
21 22 c21 22 21 24 7 230 l-14 208 -94 -220 c-94 -220 -106 -245 -122 -245 -8
0 -111 208 -189 382 -19 43 -37 77 -40 78 -3 0 -6 -66 -7 -148 -1 -81 -5 -171
-8 -200 -6 -49 -4 -54 23 -80 l29 -27 -74 0 c-40 0 -73 1 -73 2 0 1 11 13 24
26 21 21 25 38 32 123 4 54 8 159 8 232 1 129 0 134 -23 153 l-23 19 79 0 80
0 96 -212 96 -212 24 54 c13 30 55 126 92 212 l68 157 71 3 c39 2 73 2 75 1 2
-1 -7 -11 -19 -21z m585 -4 c76 -41 104 -115 65 -176 -11 -18 -35 -39 -52 -46
l-32 -14 51 -26 c66 -33 83 -58 83 -122 0 -62 -21 -93 -85 -124 -41 -20 -63
-22 -224 -24 l-179 -1 24 24 c24 24 24 24 24 257 l0 233 -25 19 c-14 11 -25
21 -25 23 0 2 78 2 172 -1 132 -5 180 -10 203 -22z m1862 23 c29 -4 55 -10 58
-12 3 -3 8 -35 11 -70 l5 -64 -33 36 c-60 67 -130 85 -203 55 -37 -16 -56 -57
-38 -85 14 -23 79 -64 143 -90 104 -43 150 -94 150 -166 0 -43 -26 -99 -42
-89 -6 4 -8 3 -5 -3 9 -14 -20 -39 -68 -59 -42 -18 -168 -21 -235 -6 -34 8
-35 9 -46 75 -6 37 -9 67 -7 67 2 0 18 -16 35 -36 48 -54 101 -77 166 -72 45
4 60 10 79 32 51 59 21 107 -103 169 -87 44 -133 81 -150 124 -18 42 -18 67 2
110 37 76 133 105 281 84z m423 0 c0 -2 -11 -12 -25 -23 -24 -18 -25 -25 -25
-119 l0 -99 130 0 130 0 0 97 c0 89 -2 99 -24 122 l-25 26 100 0 c54 0 99 -2
99 -5 0 -3 -9 -11 -20 -18 -19 -12 -20 -23 -20 -254 0 -235 1 -242 22 -265
l22 -23 -97 2 -96 3 20 21 c16 18 19 35 19 132 l0 112 -131 0 -131 0 4 -114
c3 -106 5 -115 27 -133 l23 -19 -98 0 -99 0 23 23 c22 22 22 27 22 257 l0 235
-25 19 c-14 11 -25 21 -25 23 0 2 45 4 100 4 55 0 100 -2 100 -4z m-3726 -17
c3 -9 6 -38 6 -66 l0 -51 -20 26 c-22 27 -26 42 -10 32 18 -11 11 1 -12 21
-12 10 -18 13 -13 5 7 -11 4 -13 -11 -6 -10 5 -60 11 -110 13 l-92 3 -3 -33
c-2 -18 -2 -64 1 -103 l5 -70 78 0 c73 0 80 2 102 28 13 15 25 27 27 27 2 0 3
-35 3 -78 l0 -79 -28 29 c-26 26 -34 28 -107 28 -43 0 -87 3 -97 6 -17 6 -17
6 -1 -7 14 -12 17 -30 15 -107 -1 -51 1 -98 4 -104 4 -6 44 -10 100 -9 93 2
94 2 130 37 19 19 39 31 43 27 4 -4 4 0 1 9 -4 9 -2 19 4 23 13 7 14 -38 3
-99 l-7 -38 -212 -2 -212 -1 20 21 c18 19 19 37 19 262 0 238 0 241 -22 256
-21 15 -6 16 184 16 178 0 207 -2 212 -16z m2130 -21 c3 -21 6 -51 6 -67 l0
-29 -39 44 -39 44 -96 3 -96 4 -1 -66 c0 -36 -1 -79 -2 -94 -1 -48 7 -52 91
-46 64 5 81 10 99 30 12 13 23 24 25 24 2 0 4 -36 4 -80 l2 -80 -28 30 c-27
29 -32 30 -109 30 l-81 0 0 -110 0 -110 99 0 c99 0 99 0 130 33 17 17 37 41
45 52 15 19 15 18 16 -20 0 -22 -3 -56 -6 -75 l-6 -36 -213 1 -214 0 20 21
c18 19 19 37 19 254 0 226 -1 234 -22 257 l-21 23 205 0 205 0 7 -37z m584 9
c115 -61 108 -193 -13 -248 l-54 -25 75 -97 c41 -53 90 -111 109 -128 l34 -30
-77 1 -77 2 -78 99 c-152 193 -150 193 -148 44 2 -88 5 -108 21 -125 l20 -21
-95 1 -94 0 20 21 c18 19 19 37 19 254 0 229 0 234 -22 258 l-23 24 170 -4
c154 -3 174 -5 213 -26z m1704 12 c-22 -15 -22 -18 -22 -256 0 -228 1 -243 20
-263 l20 -21 -94 0 -95 1 20 21 c18 20 20 35 19 273 -1 138 -5 249 -9 247 -4
-3 -13 -1 -21 5 -10 5 20 9 85 9 93 0 98 -1 77 -16z m558 -3 c0 -10 3 -40 6
-67 l7 -49 -39 41 c-34 36 -47 43 -94 49 -30 4 -71 5 -90 3 l-35 -3 -3 -97 -3
-98 69 0 c71 0 87 7 116 50 15 24 16 21 16 -65 -1 -73 -3 -87 -13 -74 -22 28
-55 39 -122 39 l-66 0 3 -107 3 -108 87 -3 c84 -3 88 -2 121 27 19 17 38 27
42 23 5 -4 5 -1 1 5 -4 7 0 23 9 35 16 22 16 20 10 -37 -12 -117 14 -105 -219
-102 l-203 2 23 22 c24 22 24 23 24 254 0 225 -1 233 -22 256 l-21 23 196 0
c185 0 197 -1 197 -19z m332 -4 c-20 -21 -21 -32 -22 -255 0 -181 2 -232 12
-233 60 -3 147 5 170 17 15 8 43 30 63 49 39 40 45 42 39 18 -2 -10 -8 -43
-14 -74 l-11 -57 -199 1 c-110 1 -200 4 -200 8 0 3 9 14 20 24 19 17 20 31 20
251 l0 233 -26 20 -27 21 98 0 98 0 -21 -23z m715 4 c65 -22 125 -62 118 -79
-3 -7 0 -10 5 -7 15 9 58 -65 70 -120 18 -82 -10 -182 -66 -239 -71 -70 -171
-97 -351 -93 l-122 2 21 22 c19 21 20 33 19 260 0 230 -1 239 -22 256 -20 16
-16 17 127 17 117 -1 160 -5 201 -19z"/>
<path d="M5035 7694 c-296 -204 -609 -350 -952 -444 -149 -41 -328 -80 -365
-80 -19 0 -20 -7 -15 -437 3 -334 8 -462 20 -540 87 -549 260 -919 610 -1298
36 -38 60 -73 55 -76 -5 -3 -2 -9 7 -12 9 -4 13 -3 10 3 -15 24 13 7 55 -34
115 -112 315 -252 535 -377 l125 -71 78 43 c409 223 760 535 974 864 185 284
321 688 357 1059 6 60 11 281 11 490 l0 381 -157 32 c-420 86 -788 238 -1134
469 -69 46 -128 84 -130 83 -2 0 -40 -25 -84 -55z m81 -436 c118 -124 192
-249 225 -376 55 -217 -6 -369 -342 -857 -154 -224 -204 -342 -215 -515 -10
-152 27 -291 115 -439 48 -79 48 -80 20 -65 -17 8 -27 19 -24 24 3 6 0 7 -7 5
-16 -6 -129 71 -206 140 -154 139 -256 343 -269 540 -8 118 9 216 58 340 50
125 101 208 254 410 161 212 218 298 271 408 72 149 88 264 55 389 -20 80 -14
80 65 -4z m459 -826 c24 -51 66 -130 93 -175 154 -255 193 -406 158 -606 -37
-209 -145 -381 -341 -541 -99 -81 -299 -216 -292 -196 4 9 2 15 -5 13 -32 -6
-154 204 -184 318 -60 230 -3 483 149 658 l42 49 -3 -111 c-3 -98 -1 -116 18
-156 42 -86 134 -125 224 -95 46 15 100 78 116 135 22 77 8 223 -33 361 -62
209 -72 378 -31 499 l18 50 14 -55 c7 -30 33 -97 57 -148z"/>
<path d="M4265 4940 c10 -11 20 -20 23 -20 3 0 -3 9 -13 20 -10 11 -20 20 -23
20 -3 0 3 -9 13 -20z"/>
<path d="M4450 4756 c0 -2 8 -10 18 -17 15 -13 16 -12 3 4 -13 16 -21 21 -21
13z"/>
<path d="M4550 4676 c0 -2 8 -10 18 -17 15 -13 16 -12 3 4 -13 16 -21 21 -21
13z"/>
<path d="M4897 4429 c7 -7 15 -10 18 -7 3 3 -2 9 -12 12 -14 6 -15 5 -6 -5z"/>
<path d="M4790 4356 c0 -2 7 -7 16 -10 8 -3 12 -2 9 4 -6 10 -25 14 -25 6z"/>
<path d="M4716 3634 c-21 -48 -40 -93 -43 -100 -4 -11 13 -14 81 -14 47 0 86
1 86 3 0 5 -81 191 -84 194 -2 2 -20 -36 -40 -83z"/>
<path d="M4588 3313 c7 -3 16 -2 19 1 4 3 -2 6 -13 5 -11 0 -14 -3 -6 -6z"/>
<path d="M5668 3813 c7 -3 16 -2 19 1 4 3 -2 6 -13 5 -11 0 -14 -3 -6 -6z"/>
<path d="M2528 2993 c7 -3 16 -2 19 1 4 3 -2 6 -13 5 -11 0 -14 -3 -6 -6z"/>
<path d="M2568 2993 c7 -3 16 -2 19 1 4 3 -2 6 -13 5 -11 0 -14 -3 -6 -6z"/>
<path d="M2980 2994 c0 -1 8 -8 17 -15 10 -8 14 -9 10 -2 -5 7 2 13 20 16 20
3 17 4 -9 4 -21 -1 -38 -2 -38 -3z"/>
<path d="M2501 2894 c0 -11 3 -14 6 -6 3 7 2 16 -1 19 -3 4 -6 -2 -5 -13z"/>
<path d="M3000 2900 c-9 -6 -10 -10 -3 -10 6 0 15 5 18 10 8 12 4 12 -15 0z"/>
<path d="M2612 2836 c7 -8 15 -12 17 -11 5 6 -10 25 -20 25 -5 0 -4 -6 3 -14z"/>
<path d="M2650 2830 c0 -5 5 -10 11 -10 5 0 7 5 4 10 -3 6 -8 10 -11 10 -2 0
-4 -4 -4 -10z"/>
<path d="M2672 2764 c10 -10 20 -16 22 -13 3 3 -5 11 -17 18 -21 13 -21 12 -5
-5z"/>
<path d="M3048 2773 c7 -3 16 -2 19 1 4 3 -2 6 -13 5 -11 0 -14 -3 -6 -6z"/>
<path d="M2645 2710 c3 -4 16 -10 30 -12 13 -3 22 -2 20 2 -3 4 -16 10 -30 12
-13 3 -22 2 -20 -2z"/>
<path d="M2717 2694 c-3 -5 1 -15 9 -22 16 -14 18 -5 5 17 -5 7 -11 9 -14 5z"/>
<path d="M3038 2673 c7 -3 16 -2 19 1 4 3 -2 6 -13 5 -11 0 -14 -3 -6 -6z"/>
<path d="M2670 2640 c0 -5 5 -10 11 -10 5 0 7 5 4 10 -3 6 -8 10 -11 10 -2 0
-4 -4 -4 -10z"/>
<path d="M3075 2611 c-3 -5 -1 -12 5 -16 5 -3 10 1 10 9 0 18 -6 21 -15 7z"/>
<path d="M2815 2599 c-4 -6 -5 -12 -2 -15 2 -3 7 2 10 11 7 17 1 20 -8 4z"/>
<path d="M2737 2593 c-4 -3 -7 -11 -7 -17 0 -6 5 -5 12 2 6 6 9 14 7 17 -3 3
-9 2 -12 -2z"/>
<path d="M3018 2583 c7 -3 16 -2 19 1 4 3 -2 6 -13 5 -11 0 -14 -3 -6 -6z"/>
<path d="M2491 2534 c0 -11 3 -14 6 -6 3 7 2 16 -1 19 -3 4 -6 -2 -5 -13z"/>
<path d="M2735 2520 c-3 -5 -2 -10 4 -10 5 0 13 5 16 10 3 6 2 10 -4 10 -5 0
-13 -4 -16 -10z"/>
<path d="M2767 2502 c-18 -20 -22 -32 -9 -32 4 0 12 11 19 25 13 30 12 31 -10
7z"/>
<path d="M3077 2485 c3 -8 9 -12 14 -9 12 7 11 11 -5 17 -10 4 -13 1 -9 -8z"/>
<path d="M3000 2478 c0 -4 4 -8 9 -8 6 0 12 4 15 8 3 5 -1 9 -9 9 -8 0 -15 -4
-15 -9z"/>
<path d="M3445 2990 c3 -5 8 -10 11 -10 2 0 4 5 4 10 0 6 -5 10 -11 10 -5 0
-7 -4 -4 -10z"/>
<path d="M3478 2963 c-16 -4 -18 -17 -18 -98 0 -52 3 -96 8 -98 4 -2 38 -1 77
3 54 6 73 13 87 30 21 26 24 97 4 122 -27 36 -104 55 -158 41z"/>
<path d="M3435 2800 c-3 -5 -1 -10 4 -10 6 0 11 5 11 10 0 6 -2 10 -4 10 -3 0
-8 -4 -11 -10z"/>
<path d="M3386 2779 c3 -5 0 -9 -5 -9 -6 0 -11 -5 -11 -11 0 -8 4 -8 13 0 10
7 17 7 24 0 6 -6 13 -7 16 -2 3 4 -6 13 -19 20 -13 6 -22 7 -18 2z"/>
<path d="M3588 2753 c7 -3 16 -2 19 1 4 3 -2 6 -13 5 -11 0 -14 -3 -6 -6z"/>
<path d="M3488 2743 c12 -2 30 -2 40 0 9 3 -1 5 -23 4 -22 0 -30 -2 -17 -4z"/>
<path d="M3600 2730 c0 -5 5 -10 11 -10 5 0 7 5 4 10 -3 6 -8 10 -11 10 -2 0
-4 -4 -4 -10z"/>
<path d="M3674 2718 c-4 -7 -4 -10 1 -6 4 4 15 2 24 -5 14 -11 14 -10 2 6 -16
20 -18 21 -27 5z"/>
<path d="M3460 2621 c0 -55 -2 -105 -3 -113 -2 -7 -2 -11 0 -8 1 3 26 3 55 1
103 -7 168 35 168 108 0 73 -55 111 -160 111 l-60 0 0 -99z"/>
<path d="M3390 2665 c0 -7 30 -13 34 -7 3 4 -4 9 -15 9 -10 1 -19 0 -19 -2z"/>
<path d="M3437 2550 c-4 -15 -10 -18 -24 -13 -10 3 -15 3 -12 -1 4 -4 15 -8
26 -10 14 -3 19 2 21 20 2 29 -4 31 -11 4z"/>
<path d="M3710 2545 c-7 -9 -8 -15 -2 -15 5 0 12 7 16 15 3 8 4 15 2 15 -2 0
-9 -7 -16 -15z"/>
<path d="M3362 2485 c-11 -12 -10 -15 3 -15 8 0 15 7 15 15 0 18 -2 18 -18 0z"/>
<path d="M3398 2493 c6 -2 18 -2 25 0 6 3 1 5 -13 5 -14 0 -19 -2 -12 -5z"/>
<path d="M3660 2490 c0 -5 5 -10 11 -10 5 0 7 5 4 10 -3 6 -8 10 -11 10 -2 0
-4 -4 -4 -10z"/>
<path d="M3580 2480 c0 -5 12 -10 28 -9 24 0 25 1 7 9 -27 12 -35 12 -35 0z"/>
<path d="M3408 2473 c7 -3 16 -2 19 1 4 3 -2 6 -13 5 -11 0 -14 -3 -6 -6z"/>
<path d="M3518 2473 c12 -2 30 -2 40 0 9 3 -1 5 -23 4 -22 0 -30 -2 -17 -4z"/>
<path d="M5480 2995 c0 -7 30 -13 34 -7 3 4 -4 9 -15 9 -10 1 -19 0 -19 -2z"/>
<path d="M5265 2540 c10 -11 20 -20 23 -20 3 0 -3 9 -13 20 -10 11 -20 20 -23
20 -3 0 3 -9 13 -20z"/>
<path d="M5345 2480 c3 -6 20 -10 37 -10 38 0 34 5 -10 13 -21 4 -31 3 -27 -3z"/>
<path d="M5450 2470 c0 -5 7 -7 15 -4 8 4 15 8 15 10 0 2 -7 4 -15 4 -8 0 -15
-4 -15 -10z"/>
<path d="M5896 2991 c-4 -5 3 -7 14 -4 23 6 26 13 6 13 -8 0 -17 -4 -20 -9z"/>
<path d="M6208 2993 c6 -2 18 -2 25 0 6 3 1 5 -13 5 -14 0 -19 -2 -12 -5z"/>
<path d="M6008 2753 c7 -3 16 -2 19 1 4 3 -2 6 -13 5 -11 0 -14 -3 -6 -6z"/>
<path d="M5887 2599 c7 -7 15 -10 18 -7 3 3 -2 9 -12 12 -14 6 -15 5 -6 -5z"/>
<path d="M5870 2480 c0 -5 5 -10 11 -10 5 0 7 5 4 10 -3 6 -8 10 -11 10 -2 0
-4 -4 -4 -10z"/>
<path d="M1864 2993 c8 -8 255 -8 263 1 4 3 -56 6 -132 6 -76 0 -135 -3 -131
-7z"/>
<path d="M2140 2996 c0 -2 7 -6 15 -10 8 -3 15 -1 15 4 0 6 -7 10 -15 10 -8 0
-15 -2 -15 -4z"/>
<path d="M1882 2903 c0 -28 2 -33 8 -18 6 17 3 55 -5 55 -2 0 -3 -17 -3 -37z"/>
<path d="M1915 2930 c-3 -6 1 -7 9 -4 18 7 21 14 7 14 -6 0 -13 -4 -16 -10z"/>
<path d="M1917 2849 c6 -23 9 -24 16 -5 3 8 0 17 -7 19 -10 4 -12 -1 -9 -14z"/>
<path d="M1880 2850 c0 -5 5 -10 10 -10 6 0 10 5 10 10 0 6 -4 10 -10 10 -5 0
-10 -4 -10 -10z"/>
<path d="M1880 2804 c0 -8 5 -12 10 -9 6 4 8 11 5 16 -9 14 -15 11 -15 -7z"/>
<path d="M1950 2780 c0 -5 5 -10 11 -10 5 0 7 5 4 10 -3 6 -8 10 -11 10 -2 0
-4 -4 -4 -10z"/>
<path d="M1890 2770 c18 -12 30 -13 30 -2 0 4 -10 9 -22 9 -18 2 -20 0 -8 -7z"/>
<path d="M1932 2755 c4 -4 -2 -15 -14 -25 -15 -11 -18 -19 -10 -24 7 -4 12 -2
12 5 0 6 7 17 17 24 13 10 14 13 2 20 -8 5 -11 5 -7 0z"/>
<path d="M1972 2745 c7 -8 128 -11 128 -4 0 4 -30 7 -66 8 -37 0 -65 -2 -62
-4z"/>
<path d="M2116 2739 c6 -10 64 -7 64 3 0 4 -16 7 -35 6 -19 -1 -32 -5 -29 -9z"/>
<path d="M1881 2724 c0 -11 3 -14 6 -6 3 7 2 16 -1 19 -3 4 -6 -2 -5 -13z"/>
<path d="M2165 2710 c3 -5 8 -10 11 -10 2 0 4 5 4 10 0 6 -5 10 -11 10 -5 0
-7 -4 -4 -10z"/>
<path d="M1905 2680 c3 -5 8 -10 11 -10 2 0 4 5 4 10 0 6 -5 10 -11 10 -5 0
-7 -4 -4 -10z"/>
<path d="M1882 2660 c0 -14 2 -19 5 -12 2 6 2 18 0 25 -3 6 -5 1 -5 -13z"/>
<path d="M1880 2609 c0 -5 4 -8 9 -4 6 3 14 -3 20 -12 6 -10 11 -13 11 -7 0
12 -20 34 -32 34 -4 0 -8 -5 -8 -11z"/>
<path d="M1906 2562 c-2 -4 4 -9 15 -9 11 -1 17 2 14 8 -7 11 -22 12 -29 1z"/>
<path d="M2219 2523 c-13 -15 -17 -22 -7 -15 10 8 19 9 22 3 4 -5 -3 -12 -14
-16 -24 -8 -17 -25 11 -25 16 0 19 7 19 40 0 22 -1 40 -3 40 -2 0 -14 -12 -28
-27z"/>
<path d="M1880 2510 c0 -5 5 -10 11 -10 5 0 7 5 4 10 -3 6 -8 10 -11 10 -2 0
-4 -4 -4 -10z"/>
<path d="M1916 2497 c2 -13 -1 -17 -12 -13 -9 3 -12 1 -9 -4 10 -16 38 -12 32
4 -7 19 17 28 33 13 10 -9 11 -9 8 3 -3 8 -16 15 -30 15 -20 1 -25 -3 -22 -18z"/>
<path d="M2160 2480 c0 -5 7 -10 15 -10 8 0 15 5 15 10 0 6 -7 10 -15 10 -8 0
-15 -4 -15 -10z"/>
<path d="M2008 2473 c6 -2 18 -2 25 0 6 3 1 5 -13 5 -14 0 -19 -2 -12 -5z"/>
<path d="M2063 2473 c9 -2 25 -2 35 0 9 3 1 5 -18 5 -19 0 -27 -2 -17 -5z"/>
<path d="M4065 2990 c-3 -6 1 -7 9 -4 18 7 21 14 7 14 -6 0 -13 -4 -16 -10z"/>
<path d="M4120 2996 c0 -9 39 -13 51 -5 10 6 4 9 -18 9 -18 0 -33 -2 -33 -4z"/>
<path d="M4043 2885 c0 -8 4 -12 9 -9 5 3 6 10 3 15 -9 13 -12 11 -12 -6z"/>
<path d="M4106 2747 c3 -10 9 -15 12 -12 3 3 0 11 -7 18 -10 9 -11 8 -5 -6z"/>
<path d="M4194 2738 c8 -4 25 -4 38 1 20 8 18 9 -15 8 -24 -1 -32 -4 -23 -9z"/>
<path d="M4065 2550 c-3 -6 1 -7 9 -4 18 7 21 14 7 14 -6 0 -13 -4 -16 -10z"/>
<path d="M4086 2501 c-4 -6 -12 -9 -19 -7 -7 1 -9 1 -4 -1 4 -3 5 -8 3 -12 -3
-4 1 -8 9 -8 8 0 12 4 9 9 -8 12 10 10 26 -4 12 -11 12 -10 0 7 -8 11 -15 21
-16 23 -1 2 -5 -1 -8 -7z"/>
<path d="M4290 2479 c0 -5 5 -7 10 -4 6 3 10 8 10 11 0 2 -4 4 -10 4 -5 0 -10
-5 -10 -11z"/>
<path d="M4148 2473 c6 -2 18 -2 25 0 6 3 1 5 -13 5 -14 0 -19 -2 -12 -5z"/>
<path d="M4198 2473 c7 -3 16 -2 19 1 4 3 -2 6 -13 5 -11 0 -14 -3 -6 -6z"/>
<path d="M4618 2993 c7 -3 16 -2 19 1 4 3 -2 6 -13 5 -11 0 -14 -3 -6 -6z"/>
<path d="M4718 2993 c7 -3 16 -2 19 1 4 3 -2 6 -13 5 -11 0 -14 -3 -6 -6z"/>
<path d="M4788 2993 c7 -3 16 -2 19 1 4 3 -2 6 -13 5 -11 0 -14 -3 -6 -6z"/>
<path d="M4748 2963 c-16 -4 -18 -18 -18 -109 l0 -104 50 0 c89 0 140 42 140
115 0 31 -6 47 -24 64 -33 31 -101 47 -148 34z"/>
<path d="M4790 2686 c0 -2 8 -10 18 -17 15 -13 16 -12 3 4 -13 16 -21 21 -21
13z"/>
<path d="M4630 2640 c0 -5 5 -10 11 -10 5 0 7 5 4 10 -3 6 -8 10 -11 10 -2 0
-4 -4 -4 -10z"/>
<path d="M4938 2603 c7 -3 16 -2 19 1 4 3 -2 6 -13 5 -11 0 -14 -3 -6 -6z"/>
<path d="M5040 2480 c0 -5 5 -10 11 -10 5 0 7 5 4 10 -3 6 -8 10 -11 10 -2 0
-4 -4 -4 -10z"/>
<path d="M5008 2473 c7 -3 16 -2 19 1 4 3 -2 6 -13 5 -11 0 -14 -3 -6 -6z"/>
<path d="M6868 2993 c6 -2 18 -2 25 0 6 3 1 5 -13 5 -14 0 -19 -2 -12 -5z"/>
<path d="M6938 2993 c7 -3 16 -2 19 1 4 3 -2 6 -13 5 -11 0 -14 -3 -6 -6z"/>
<path d="M6978 2743 c6 -2 18 -2 25 0 6 3 1 5 -13 5 -14 0 -19 -2 -12 -5z"/>
<path d="M7058 2743 c7 -3 16 -2 19 1 4 3 -2 6 -13 5 -11 0 -14 -3 -6 -6z"/>
<path d="M7748 2473 c6 -2 18 -2 25 0 6 3 1 5 -13 5 -14 0 -19 -2 -12 -5z"/>
<path d="M8148 2993 c6 -2 18 -2 25 0 6 3 1 5 -13 5 -14 0 -19 -2 -12 -5z"/>
<path d="M8088 2963 c-17 -4 -18 -24 -18 -232 l0 -228 30 -7 c79 -15 191 39
224 109 40 83 30 217 -21 284 -39 51 -156 91 -215 74z"/>
<path d="M7981 2664 c0 -11 3 -14 6 -6 3 7 2 16 -1 19 -3 4 -6 -2 -5 -13z"/>
<path d="M8020 2546 c0 -2 8 -10 18 -17 15 -13 16 -12 3 4 -13 16 -21 21 -21
13z"/>
<path d="M8103 2473 c9 -2 23 -2 30 0 6 3 -1 5 -18 5 -16 0 -22 -2 -12 -5z"/>
</g>
</svg>
